<?xml version="1.0" encoding="UTF-8"?><svg id="NewSudanFlag" xmlns="http://www.w3.org/2000/svg" viewBox="0 0 512 512"><defs><style>.cls-1{fill:#fff;}.cls-2{fill:#0645b1;}.cls-3{fill:#db0a13;}.cls-4{fill:#018a2c;}.cls-5{fill:#fcde02;}</style></defs><rect id="Sky" class="cls-2" x="0" width="512" height="512"/><polygon id="Ray_Left" class="cls-1" points="0 512 106.04 512 256 362.04 0 106.04 0 512"/><polygon id="Mountain_Left" class="cls-3" points="256 421.19 0 227.56 0 512 271.13 512 256 421.19"/><polygon id="Ray_Right" class="cls-1" points="256 362.04 405.96 512 512 512 512 106.04 256 362.04"/><polygon id="Mountain_Right" points="512 512 512 227.56 256 421.19 233.14 512 512 512"/><polygon id="Pyramid" class="cls-4" points="459.17 512 256 227.56 52.83 512 459.17 512"/><polygon id="Star" class="cls-5" points="256 56.89 274.48 94.34 315.82 100.35 285.91 129.51 292.97 170.67 256 151.24 219.03 170.67 226.09 129.51 196.18 100.35 237.52 94.34 256 56.89"/></svg>